<?xml version="1.0" encoding="utf-8"?>
<!-- Generator: Adobe Illustrator 27.0.0, SVG Export Plug-In . SVG Version: 6.00 Build 0)  -->
<svg version="1.1" id="레이어_1" xmlns="http://www.w3.org/2000/svg" xmlns:xlink="http://www.w3.org/1999/xlink" x="0px"
	 y="0px" viewBox="0 0 40 40" style="enable-background:new 0 0 40 40;" xml:space="preserve">
<style type="text/css">
	.st0{fill:#FFFFFF;}
</style>
<g>
	<path class="st0" d="M12.96,39.12c-0.96,0-1.78-0.34-2.46-1.02c-0.68-0.68-1.02-1.5-1.02-2.46c0-0.96,0.34-1.78,1.02-2.46
		c0.68-0.68,1.5-1.02,2.46-1.02s1.77,0.34,2.44,1.02c0.67,0.68,1,1.5,1,2.46c0,0.96-0.34,1.78-1.02,2.46
		C14.69,38.78,13.89,39.12,12.96,39.12z M31.53,39.12c-0.96,0-1.78-0.34-2.46-1.02c-0.68-0.68-1.02-1.5-1.02-2.46
		c0-0.96,0.34-1.78,1.02-2.46c0.68-0.68,1.5-1.02,2.46-1.02c0.96,0,1.77,0.34,2.44,1.02c0.67,0.68,1,1.5,1,2.46
		c0,0.96-0.34,1.78-1.02,2.46C33.26,38.78,32.46,39.12,31.53,39.12z M9.66,4.54h25.85c1.18,0,2.07,0.51,2.67,1.53
		c0.6,1.02,0.61,2.07,0.02,3.16l-5.48,9.98c-0.4,0.65-0.92,1.18-1.56,1.6c-0.63,0.42-1.34,0.63-2.11,0.63H15.42l-2.04,3.9h22.19
		v4.22H12.63c-1.61,0-2.78-0.6-3.5-1.79c-0.73-1.19-0.72-2.44,0.02-3.74l2.69-4.83L5.21,5.1H1.35V0.88H7.9L9.66,4.54z"/>
</g>
</svg>
