<svg xmlns="http://www.w3.org/2000/svg" height="40" width="40"><path fill="#fff" d="M26.625 19.625q1 0 1.729-.708.729-.709.729-1.75 0-1-.729-1.729-.729-.73-1.771-.73-1 0-1.729.73-.729.729-.729 1.729 0 1.041.729 1.75.729.708 1.771.708Zm-14.833-3.458h9.833v-3.875h-9.833Zm-6.167 20q-1.5-5.042-2.958-10.042-1.459-5-1.459-10.292 0-4.291 3-7.333t7.334-3.042H21Q22.375 3.875 24.25 3q1.875-.875 4-.875 1.458 0 2.542 1.063 1.083 1.062 1.083 2.562 0 .292-.208 1.208-.084.334-.188.667t-.187.708l2.958 2.959h4.542V25l-5.167 1.583-2.833 9.584H19.625v-3.334h-2.833v3.334Z"/></svg>